<?xml version="1.0" standalone="no"?><!DOCTYPE svg PUBLIC "-//W3C//DTD SVG 1.1//EN" "http://www.w3.org/Graphics/SVG/1.1/DTD/svg11.dtd"><svg t="1700825843336" class="icon" viewBox="0 0 1024 1024" version="1.1" xmlns="http://www.w3.org/2000/svg" p-id="1640" id="mx_n_1700825843337" xmlns:xlink="http://www.w3.org/1999/xlink" width="200" height="200"><path d="M327.2 117.6v787h590.3v-787H327.2z m476.9 570.2H440.8c-0.1-2-0.3-4.1-0.3-6.2 0-68.2 37.6-127.6 93.1-158.7-10.6-16.4-16.7-35.8-16.7-56.8 0-58.2 47.2-105.3 105.3-105.3 58.2 0 105.5 47.1 105.5 105.3 0 21-6.2 40.4-16.7 56.8 55.6 31.1 93.1 90.5 93.1 158.7 0.2 2.1 0.1 4.2 0 6.2z" fill="#e76033" p-id="1641"></path><path d="M349.2 906.4H106.5V250.6h242.7v65.6H172.1v524.7h177.1z" fill="#e76033" p-id="1642"></path></svg>